<?xml version="1.0" standalone="no"?>
<svg xmlns="http://www.w3.org/2000/svg" xmlns:xlink="http://www.w3.org/1999/xlink" height="200px" width="200px">
  <defs>
    <pattern id="doodad" width="50" height="50" viewBox="0 0 40 40" patternUnits="userSpaceOnUse" patternTransform="rotate(45)">
      <rect width="100%" height="100%" fill="rgba(226, 233, 224,1)"/>
      <path d="M0 21a 7-7 0 0 0 7-7a 13-13 0 0 1 13-13v6a-7 7 0 0 0-7 7a-13 13 0 0 1-13 13zM0 61a 7-7 0 0 0 7-7a 13-13 0 0 1 13-13v6a-7 7 0 0 0-7 7a-13 13 0 0 1-13 13z" fill="rgba(174, 175, 174,0.5)" filter="url(#filter-doodad-1)"/>
      <path d="M20 28a 8-8 0 0 0 8-8a 12-12 0 0 1 12-12v4a-8 8 0 0 0-8 8a-12 12 0 0 1-12 12z" fill="rgba(114, 114, 114,0.1)"/>
    </pattern>
    <filter id="filter-doodad-1">
      <feTurbulence baseFrequency="0.01 0.8" numOctaves="2" result="result1"/>
      <feDisplacementMap in2="result1" scale="13" result="result2" xChannelSelector="R" yChannelSelector="G" in="SourceGraphic"/>
      <feComposite in2="result2" in="SourceGraphic" operator="atop" result="compositeGraphic"/>
      <feOffset in="compositeGraphic" result="fbSourceGraphic" dx="-1.3"/>
    </filter>
  </defs>
  <rect fill="url(#doodad)" height="200%" width="200%"/>
</svg>
